<?xml version="1.0" encoding="utf-8"?>
<!-- Generator: Adobe Illustrator 28.0.0, SVG Export Plug-In . SVG Version: 6.00 Build 0)  -->
<svg version="1.1" xmlns="http://www.w3.org/2000/svg" xmlns:xlink="http://www.w3.org/1999/xlink" x="0px" y="0px"
	 viewBox="0 0 387.4 387.4" style="enable-background:new 0 0 387.4 387.4;" xml:space="preserve">
<style type="text/css">
	.st0{fill:none;stroke:#1B303F;stroke-width:5;stroke-miterlimit:10;}
	.st1{fill:#122335;}
	.st2{fill:#FFFFFF;}
	.st3{fill:none;stroke:#FFFFFF;stroke-width:15;stroke-linecap:round;stroke-linejoin:round;stroke-miterlimit:10;}
	.st4{fill:#F6FDFC;}
	.st5{fill:none;stroke:url(#SVGID_1_);stroke-width:5;stroke-miterlimit:10;}
	.st6{fill:url(#SVGID_00000050626829836217091910000011145792088992734624_);}
	.st7{fill:#55C3F6;}
	.st8{fill:none;stroke:#55C3F6;stroke-width:15;stroke-linecap:round;stroke-linejoin:round;stroke-miterlimit:10;}
	.st9{fill:none;stroke:url(#SVGID_00000140708384269458280440000002788284955992098688_);stroke-width:5;stroke-miterlimit:10;}
	.st10{fill:url(#SVGID_00000176757714074784463090000010281715238012771749_);}
	.st11{display:none;}
	
		.st12{display:inline;fill:none;stroke:url(#SVGID_00000155860447804062079060000017827513161049267090_);stroke-width:5;stroke-miterlimit:10;}
	.st13{display:inline;fill:url(#SVGID_00000160910114353697026030000007100243695269380739_);}
	.st14{display:inline;}
	
		.st15{display:inline;fill:none;stroke:url(#SVGID_00000181081419041455476980000002569422122099232138_);stroke-width:5;stroke-miterlimit:10;}
	.st16{display:inline;fill:url(#SVGID_00000069374872742738916660000017147481705467300775_);}
	
		.st17{display:inline;fill:none;stroke:url(#SVGID_00000161597233519869821850000012924238610892287418_);stroke-width:5;stroke-miterlimit:10;}
	.st18{display:inline;fill:url(#SVGID_00000011715617433558717060000009814413915528083590_);}
	.st19{display:inline;fill:none;}
	.st20{display:inline;fill:#FFFFFF;}
	.st21{font-family:'Poppins-SemiBold';}
	.st22{font-size:65px;}
	.st23{opacity:0.1;fill:#D0EDF7;}
	.st24{fill:#74CEF6;}
	.st25{fill:#93D8F7;}
	.st26{fill:#B1E3F7;}
	.st27{fill:#D0EDF7;}
	.st28{fill:#3E3F3F;}
	.st29{fill:#7B7F7E;}
	.st30{fill:#B9BEBD;}
	.st31{fill:#263748;}
	.st32{fill:#394B5B;}
	.st33{fill:#4D5E6E;}
	.st34{fill:#607281;}
</style>
<g id="reference">
</g>
<g id="Layer_3">
	<g>
		<linearGradient id="SVGID_1_" gradientUnits="userSpaceOnUse" x1="2.1809" y1="193.6808" x2="385.1808" y2="193.6808">
			<stop  offset="0" style="stop-color:#607281"/>
			<stop  offset="1" style="stop-color:#1B303F"/>
		</linearGradient>
		<path class="st5" d="M332.7,382.7h-278c-27.6,0-50-22.4-50-50v-278c0-27.6,22.4-50,50-50h278c27.6,0,50,22.4,50,50v278
			C382.7,360.3,360.3,382.7,332.7,382.7z"/>
		
			<linearGradient id="SVGID_00000021835579222316781330000000347496799304792713_" gradientUnits="userSpaceOnUse" x1="-85.4049" y1="-93.862" x2="169.5661" y2="168.8353">
			<stop  offset="0" style="stop-color:#607281"/>
			<stop  offset="0.2773" style="stop-color:#394B5B"/>
			<stop  offset="1" style="stop-color:#122335"/>
		</linearGradient>
		<path style="fill:url(#SVGID_00000021835579222316781330000000347496799304792713_);" d="M328.2,368.2H59.1c-22.1,0-40-17.9-40-40
			V59.1c0-22.1,17.9-40,40-40h269.1c22.1,0,40,17.9,40,40v269.1C368.2,350.3,350.3,368.2,328.2,368.2z"/>
		<g>
			<path class="st2" d="M113.4,289.8H93.3l-3.3,9.6H79.4l18.1-50.5h11.8l18.1,50.5h-10.7L113.4,289.8z M110.7,281.7l-7.3-21.1
				l-7.3,21.1H110.7z"/>
			<path class="st2" d="M134.1,268.5c1.6-3.1,3.8-5.5,6.6-7.2c2.8-1.7,5.9-2.5,9.3-2.5c2.6,0,5.1,0.6,7.4,1.7
				c2.4,1.1,4.2,2.6,5.6,4.5v-19h10.3v53.5h-10.3v-5.9c-1.3,2-3,3.6-5.3,4.8c-2.3,1.2-4.9,1.8-7.9,1.8c-3.4,0-6.5-0.9-9.2-2.6
				c-2.8-1.7-5-4.2-6.6-7.3c-1.6-3.2-2.4-6.8-2.4-10.9C131.6,275.2,132.4,271.6,134.1,268.5z M161.7,273.1c-1-1.8-2.3-3.1-3.9-4
				c-1.6-0.9-3.4-1.4-5.3-1.4s-3.6,0.5-5.2,1.4c-1.6,0.9-2.9,2.3-3.9,4c-1,1.8-1.5,3.8-1.5,6.3c0,2.4,0.5,4.5,1.5,6.3
				c1,1.8,2.3,3.2,3.9,4.2c1.6,1,3.3,1.4,5.2,1.4c1.9,0,3.6-0.5,5.3-1.4c1.6-0.9,2.9-2.3,3.9-4c1-1.8,1.4-3.9,1.4-6.3
				C163.1,276.9,162.7,274.8,161.7,273.1z"/>
			<path class="st2" d="M218.9,277.8c1.8,2.3,2.7,5,2.7,7.9c0,2.7-0.7,5.1-2,7.1c-1.3,2-3.2,3.7-5.7,4.8s-5.5,1.7-8.9,1.7h-21.8V249
				h20.8c3.4,0,6.4,0.6,8.9,1.7c2.5,1.1,4.4,2.7,5.6,4.6c1.3,2,1.9,4.2,1.9,6.7c0,2.9-0.8,5.4-2.3,7.4c-1.6,2-3.6,3.4-6.3,4.2
				C214.7,274.1,217,275.5,218.9,277.8z M193.4,269.8h9.3c2.4,0,4.3-0.5,5.6-1.6c1.3-1.1,2-2.6,2-4.7c0-2-0.7-3.6-2-4.7
				c-1.3-1.1-3.2-1.7-5.6-1.7h-9.3V269.8z M209.3,289.4c1.4-1.2,2.1-2.8,2.1-4.9c0-2.2-0.7-3.9-2.2-5.1c-1.4-1.2-3.4-1.8-5.9-1.8
				h-10v13.6h10.2C206,291.2,207.9,290.6,209.3,289.4z"/>
			<path class="st2" d="M237.1,297.5c-3.1-1.7-5.5-4.1-7.3-7.3c-1.8-3.1-2.6-6.7-2.6-10.8c0-4.1,0.9-7.7,2.7-10.8
				c1.8-3.1,4.3-5.6,7.4-7.3c3.1-1.7,6.6-2.6,10.5-2.6c3.9,0,7.3,0.9,10.5,2.6c3.1,1.7,5.6,4.1,7.4,7.3c1.8,3.1,2.7,6.7,2.7,10.8
				c0,4.1-0.9,7.7-2.8,10.8c-1.9,3.1-4.4,5.6-7.5,7.3c-3.2,1.7-6.7,2.6-10.6,2.6C243.6,300,240.2,299.2,237.1,297.5z M252.6,289.9
				c1.6-0.9,2.9-2.2,3.9-4c1-1.8,1.4-3.9,1.4-6.5c0-3.8-1-6.7-3-8.8c-2-2-4.4-3.1-7.3-3.1c-2.9,0-5.3,1-7.3,3.1s-2.9,5-2.9,8.8
				c0,3.8,0.9,6.7,2.9,8.8c1.9,2,4.3,3.1,7.2,3.1C249.3,291.2,251,290.8,252.6,289.9z"/>
			<path class="st2" d="M297.9,299.4l-8.2-12.4l-7.3,12.4h-10.8l13.1-20.1l-13.2-19.9h11.4l8.2,12.4l7.4-12.4h10.8L296,279.3
				l13.3,20.1H297.9z"/>
		</g>
		<path class="st7" d="M186.5,155.8l-21.7,37.6c-3.2,5.5,0.8,12.5,7.2,12.5h43.4c6.4,0,10.4-6.9,7.2-12.5l-21.7-37.6
			C197.7,150.3,189.7,150.3,186.5,155.8z"/>
		<g>
			<path class="st7" d="M259.5,228.7c-2.9,0-5.7-1.5-7.2-4.2l-50.1-86.7c-2-3.5-5.6-5.6-9.7-5.6c-4.1,0-7.6,2-9.7,5.6l-50.1,86.7
				c-2.3,4-7.4,5.4-11.4,3.1c-4-2.3-5.4-7.4-3.1-11.4l50.1-86.7c5-8.7,14-13.9,24.1-13.9s19.1,5.2,24.1,13.9l50.1,86.7
				c2.3,4,0.9,9.1-3.1,11.4C262.4,228.3,260.9,228.7,259.5,228.7z"/>
		</g>
		<g>
			<path class="st7" d="M133.3,145.6c-4.6,0-8.3-3.7-8.3-8.3c0-25.9,21.1-47,47-47c4.6,0,8.3,3.7,8.3,8.3c0,4.6-3.7,8.3-8.3,8.3
				c-16.7,0-30.4,13.6-30.4,30.4C141.6,141.9,137.9,145.6,133.3,145.6z"/>
			<path class="st7" d="M255,145.6c-4.6,0-8.3-3.7-8.3-8.3c0-16.7-13.6-30.4-30.4-30.4c-4.6,0-8.3-3.7-8.3-8.3
				c0-4.6,3.7-8.3,8.3-8.3c25.9,0,47,21.1,47,47C263.3,141.9,259.6,145.6,255,145.6z"/>
		</g>
	</g>
</g>
<g id="logoo_sample" class="st11">
	
		<linearGradient id="SVGID_00000181798666108702250830000004402057240378818436_" gradientUnits="userSpaceOnUse" x1="24.8934" y1="204.6808" x2="369.8934" y2="204.6808">
		<stop  offset="0" style="stop-color:#607281"/>
		<stop  offset="1" style="stop-color:#1B303F"/>
	</linearGradient>
	
		<path style="display:inline;fill:none;stroke:url(#SVGID_00000181798666108702250830000004402057240378818436_);stroke-width:5;stroke-miterlimit:10;" d="
		M317.4,374.7h-240c-27.6,0-50-22.4-50-50v-240c0-27.6,22.4-50,50-50h240c27.6,0,50,22.4,50,50v240
		C367.4,352.3,345,374.7,317.4,374.7z"/>
	
		<linearGradient id="SVGID_00000018922123865295903130000016613794424727342480_" gradientUnits="userSpaceOnUse" x1="50.5785" y1="60.9568" x2="344.2083" y2="348.4049">
		<stop  offset="0" style="stop-color:#607281"/>
		<stop  offset="0.2773" style="stop-color:#3E5160"/>
		<stop  offset="1" style="stop-color:#1B303F"/>
	</linearGradient>
	<path style="display:inline;fill:url(#SVGID_00000018922123865295903130000016613794424727342480_);" d="M314.4,361.7h-234
		c-22.1,0-40-17.9-40-40v-234c0-22.1,17.9-40,40-40h234c22.1,0,40,17.9,40,40v234C354.4,343.8,336.5,361.7,314.4,361.7z"/>
	<rect x="92.1" y="244.5" class="st19" width="210.6" height="57.8"/>
	<text transform="matrix(1 0 0 1 92.9075 299.7675)" class="st20 st21 st22">AdBox</text>
	<g class="st14">
		<path class="st7" d="M190.2,171.9l-18.1,31.3c-3.2,5.5,0.8,12.5,7.2,12.5h36.2c6.4,0,10.4-6.9,7.2-12.5l-18.1-31.3
			C201.4,166.3,193.4,166.3,190.2,171.9z"/>
		<path class="st8" d="M257.6,231.7l-45-78c-6.7-11.7-23.6-11.7-30.4,0l-45,78"/>
		<g>
			<path class="st8" d="M143.1,154c0-19.2,15.6-34.8,34.8-34.8"/>
			<path class="st8" d="M217.7,119.1c19.2,0,34.8,15.6,34.8,34.8"/>
		</g>
	</g>
</g>
<g id="guides">
</g>
</svg>
